<svg width="42" height="42" viewBox="0 0 42 42" fill="none" xmlns="http://www.w3.org/2000/svg">
<rect width="42" height="42" rx="11" fill="#1E40AF"/>
<g clip-path="url(#clip0_55_856)">
<path d="M21 31C26.5228 31 31 26.5228 31 21C31 15.4772 26.5228 11 21 11C15.4772 11 11 15.4772 11 21C11 26.5228 15.4772 31 21 31Z" stroke="white" stroke-width="1.83333" stroke-linecap="round" stroke-linejoin="round"/>
<path d="M18.3325 18.25C18.548 17.6373 18.9734 17.1207 19.5333 16.7917C20.0932 16.4626 20.7515 16.3423 21.3916 16.4521C22.0317 16.5619 22.6123 16.8947 23.0305 17.3915C23.4487 17.8884 23.6777 18.5172 23.6767 19.1666C23.6767 21 20.9267 21.9166 20.9267 21.9166" stroke="white" stroke-width="1.83333" stroke-linecap="round" stroke-linejoin="round"/>
<path d="M21 25.5833H21.01" stroke="white" stroke-width="1.83333" stroke-linecap="round" stroke-linejoin="round"/>
</g>
<defs>
<clipPath id="clip0_55_856">
<rect width="22" height="22" fill="white" transform="translate(10 10)"/>
</clipPath>
</defs>
</svg>
