<svg width="42" height="42" viewBox="0 0 42 42" fill="none" xmlns="http://www.w3.org/2000/svg">
<rect width="42" height="42" rx="11" fill="#1E40AF"/>
<path d="M25.5834 29.25V27.4167C25.5834 26.4442 25.1971 25.5116 24.5095 24.8239C23.8218 24.1363 22.8892 23.75 21.9167 23.75H14.5834C13.611 23.75 12.6783 24.1363 11.9907 24.8239C11.3031 25.5116 10.9167 26.4442 10.9167 27.4167V29.25" stroke="white" stroke-width="1.83333" stroke-linecap="round" stroke-linejoin="round"/>
<path d="M18.2499 20.0833C20.275 20.0833 21.9166 18.4417 21.9166 16.4167C21.9166 14.3916 20.275 12.75 18.2499 12.75C16.2249 12.75 14.5833 14.3916 14.5833 16.4167C14.5833 18.4417 16.2249 20.0833 18.2499 20.0833Z" stroke="white" stroke-width="1.83333" stroke-linecap="round" stroke-linejoin="round"/>
<path d="M31.0834 29.25V27.4166C31.0828 26.6042 30.8124 25.815 30.3147 25.1729C29.8169 24.5308 29.12 24.0722 28.3334 23.8691M24.6667 12.8691C25.4555 13.0711 26.1545 13.5298 26.6538 14.1729C27.153 14.8161 27.4239 15.6071 27.4239 16.4212C27.4239 17.2354 27.153 18.0264 26.6538 18.6695C26.1545 19.3127 25.4555 19.7714 24.6667 19.9733" stroke="white" stroke-width="1.83333" stroke-linecap="round" stroke-linejoin="round"/>
</svg>
